<svg xmlns="http://www.w3.org/2000/svg" viewBox="0 0 491 516"><defs><style>.st1{fill:#cc584c}.st3{fill:#ddd}.st5{fill:#122a3a}</style></defs><g id="icon"><path d="M467 2h-21l-3 3h-44l-6 6h-31l-6-6H70l-5 5H55l-8-8H12C5.37 2 0 7.37 0 14v488c0 6.63 5.37 12 12 12h467c6.63 0 12-5.37 12-12V26zm11.5 475h-24v-24h24z" style="fill:#36434f"/><path d="M434.5 210h-378c-7.72 0-14 6.28-14 14v290h2V224c0-6.63 5.37-12 12-12h378c6.63 0 12 5.37 12 12v290h2V224c0-7.72-6.28-14-14-14m-378-30h314c7.72 0 14-6.28 14-14V11h-2v155c0 6.63-5.37 12-12 12h-314c-6.63 0-12-5.37-12-12V2h-2v164c0 7.72 6.28 14 14 14" class="st5"/><path d="M116.5 5v155c0 6.63 5.37 12 12 12h236c6.63 0 12-5.37 12-12V5zm223 159h-67V26h67z" class="st3"/><path d="M23 35 10 64h6v10h14V64h6zM12.5 453h24v24h-24zm388-404h3v37h-3zm14 0v14h-5V49h-3v17h11V49zm0 37V72h-5v14h-3V69h11v17zm6-37h3v37h-3zm6 6.1v3.03c4.53.72 8 4.64 8 9.37s-3.47 8.65-8 9.37v3.03c6.19-.74 11-6.01 11-12.4s-4.81-11.66-11-12.4" class="st5"/><path d="M426.5 49.08v3c7.85.76 14 7.38 14 15.42s-6.15 14.67-14 15.42v3c9.51-.77 17-8.71 17-18.42s-7.49-17.66-17-18.42" class="st5"/><path d="M68 224.5h355c6.62 0 12 5.38 12 12v33H56v-33c0-6.62 5.38-12 12-12" class="st1"/><path d="M56 269.5h379v37H56z" class="st3"/><path d="M56 306.5h379v2H56z" class="st1"/><path d="M56 308.5h379v37H56z" class="st3"/><path d="M56 345.5h379v2H56z" class="st1"/><path d="M56 347.5h379v37H56z" class="st3"/><path d="M56 384.5h379v2H56z" class="st1"/><path d="M56 386.5h379v37H56z" class="st3"/><path d="M56 423.5h379v2H56z" class="st1"/><path d="M56 425.5h379v37H56z" class="st3"/><path d="M56 462.5h379v2H56z" class="st1"/><path d="M56 464.5h379v25c0 6.62-5.38 12-12 12H68c-6.62 0-12-5.38-12-12z" class="st3"/><path d="m70 5-5 5H55l-8-8H12C5.37 2 0 7.37 0 14v488c0 6.63 5.37 12 12 12h233.5V5z" style="fill:#444;opacity:.15"/></g></svg>
