<svg xmlns="http://www.w3.org/2000/svg" xml:space="preserve" viewBox="0 0 1920 673"><path d="M0 0h1920v673H0z" style="fill:#244d6a"/><path d="M24.7 19.9h40.9v11.5H24.7zm51.2 0h71.6v11.5H75.9zm81.9 0h61.4v11.5h-61.4zm71.6 0h40.9v11.5h-40.9zm-204.7 46h40.9v11.5H24.7zm51.2 0h10.2v11.5H75.9zm20.4 0h20.5v11.5H96.3zM24.7 112H127v11.5H24.7zm112.6 0h10.2v11.5h-10.2zm20.5 0h20.5v11.5h-20.5zM24.7 135h30.7v11.5H24.7zm40.9 0h10.2v11.5H65.6zm20.5 0h20.5v11.5H86.1zm30.7 0h81.9v11.5h-81.9zm-51.2 23.1h40.9v11.5H65.6zm51.2 0H127v11.5h-10.2zm20.5 0h20.5v11.5h-20.5zm-71.7 23h20.5v11.5H65.6zm30.7 0h61.4v11.5H96.3zm71.7 0h10.2v11.5H168zm20.4 0H301v11.5H188.4zm-81.8 23h102.3v11.5H106.6zm112.5 0h10.2v11.5h-10.2zm20.5 0H301v11.5h-61.4zm-174 23h30.7v11.5H65.6zm41 0H168v11.5h-61.4zm71.6 0h20.5v11.5h-20.5zm30.7 0h20.5v11.5h-20.5zm-102.3 23.1H127v11.5h-20.5zm30.7 0h61.4v11.5h-61.4zm71.6 0h20.5v11.5h-20.5zm30.7 0h143.3v11.5H239.6zm-92.1 23h143.3v11.5H147.5zm-40.9 23h51.2v11.5h-51.2zm40.9 23h143.3v11.5H147.5zm-81.9 23.1h174v11.5h-174zm-40.9 46h51.2v11.5H24.7zm61.4 0h10.2v11.5H86.1zm20.5 0h102.3v11.5H106.6zm112.5 0h10.2v11.5h-10.2zm20.5 0h122.8v11.5H239.6zm133 0h10.2v11.5h-10.2zm20.5 0h10.2v11.5h-10.2zm20.5 0h10.2v11.5h-10.2zm20.4 0h61.4v11.5H434zM24.7 434.4h30.7v11.5H24.7zm40.9 0h10.2v11.5H65.6zm20.5 0h20.5v11.5H86.1zm30.7 0h174v11.5h-174zm-51.2 23h20.5v11.5H65.6zm30.7 0h10.2v11.5H96.3zm20.5 0H127v11.5h-10.2zm-51.2 23h122.8v11.5H65.6zm133.1 0h10.2v11.5h-10.2zm20.4 0h10.2v11.5h-10.2zm-153.5 23h40.9V515H65.6zm51.2 0H127V515h-10.2zm20.5 0h51.2V515h-51.2zm-71.7 23.1h71.6V538H65.6zm81.9 0h10.2V538h-10.2zm20.5 0h10.2V538H168zm-143.3 46h61.4V584H24.7zm71.6 0h20.5V584H96.3zm30.8 0h501.5V584H127.1zM24.7 618.6h40.9v11.5H24.7zm51.2 0h184.2v11.5H75.9zm194.4 0h40.9v11.5h-40.9zm51.2 0H342v11.5h-20.5zm30.7 0h51.2v11.5h-51.2zm-286.6 23h184.2v11.5H65.6z" style="opacity:.2;fill:#fff"/><path d="M774.4 16h271.3v30.5H774.4zm298.4 0h27.1v30.5h-27.1zm54.3 0h162.8v30.5h-162.8zM665.9 77.1h81.4v30.5h-81.4zm108.5 0h162.8v30.5H774.4zm189.9 0h54.3v30.5h-54.3zm81.4 0h54.3v30.5h-54.3zm-271.3 61h54.3v30.5h-54.3zm81.4 0h162.8v30.5H855.8zm189.9 0h54.3v30.5h-54.3zm81.4 0h379.8v30.5h-379.8zm-244.2 61.1h379.8v30.5H883zm-108.5 61H910v30.5H774.4zm108.6 61h379.8v30.5H883zm-217.1 61.1h461.2v30.5H665.9zM557.4 504.4H693v30.5H557.4zm162.8 0h27.1v30.5h-27.1zm54.2 0h271.3v30.5H774.4zm298.4 0h27.1v30.5h-27.1zm54.3 0h325.5v30.5h-325.5zm352.7 0h27.1v30.5h-27.1zm54.2 0h27.1v30.5H1534zm54.3 0h27.1v30.5h-27.1zm54.2 0h162.8v30.5h-162.8zm-1085.1 122h81.4V657h-81.4zm108.5 0H693V657h-27.1zm54.3 0h54.3V657h-54.3zm81.4 0h461.2V657H801.6z" style="opacity:5.000000e-02;fill:#fff"/><path d="M406 29.3h1109.1v168.8H406z" style="fill:none"/><path d="M412.9 365.3V275h15.5v22.3l-.4 13h.2c.7-4.5 2.7-7.9 5.8-10.5 3.1-2.5 7.2-3.8 12.2-3.8 6.7 0 12 2.2 16 6.7s6 10.4 6 17.9v44.7h-15.5v-43c0-4.1-1.1-7.3-3.3-9.5s-5.1-3.3-8.8-3.3c-3.9 0-6.9 1.2-9.1 3.5q-3.3 3.45-3.3 9.9v42.5h-15.3zm94.3 1.2c-7 0-12.5-1.8-16.6-5.5-4-3.7-6.1-8.7-6.1-15 0-6.7 2.3-11.9 6.9-15.5 4.6-3.7 11-5.5 19.3-5.5H527v-5.7c0-3.3-1.1-5.9-3.2-7.7s-5.2-2.7-9-2.7c-3.5 0-6.5.7-8.7 2.2-2.3 1.5-3.5 3.5-3.8 5.9h-14.7q.45-9.45 8.1-15.3c7.65-5.85 11.6-5.8 19.6-5.8 8.4 0 15 2.1 19.9 6.2s7.3 9.8 7.3 16.9v46.1h-15v-11.5h-.2c-.9 4-3.1 7.1-6.7 9.3-3.5 2.5-8 3.6-13.4 3.6m5-11.5c4.4 0 7.9-1.1 10.7-3.3s4.1-5.1 4.1-8.7v-8.2h-16c-3.5 0-6.2.9-8.2 2.7q-3 2.7-3 7.2 0 4.8 3.3 7.5c2.4 1.9 5.4 2.8 9.1 2.8m51.1 10.3v-68h15.1v13h.4c.7-4.5 2.6-7.9 5.9-10.5 3.3-2.5 7.5-3.8 12.6-3.8q10.5 0 16.8 6.9c4.2 4.6 6.3 10.8 6.3 18.7v5.6h-16.2v-4.5c0-4.2-1.1-7.5-3.3-9.8-2.2-2.4-5.3-3.5-9.5-3.5-8.5 0-12.7 4.7-12.7 14.2v41.7zm74.2 0v-68h15.1v13h.4c.7-4.5 2.6-7.9 5.9-10.5 3.3-2.5 7.5-3.8 12.6-3.8q10.5 0 16.8 6.9c4.2 4.6 6.3 10.8 6.3 18.7v5.6h-16.2v-4.5c0-4.2-1.1-7.5-3.3-9.8-2.2-2.4-5.3-3.5-9.5-3.5-8.5 0-12.7 4.7-12.7 14.2v41.7zm72.2 0v-14H733v-40.1h-20.8v-14h36.2v54.1h20.9v14zm29.9-79.5c-3.1 0-5.6-.8-7.4-2.4s-2.7-3.8-2.7-6.5.9-4.9 2.7-6.5 4.3-2.4 7.4-2.4 5.6.8 7.4 2.4 2.7 3.8 2.7 6.5-.9 4.9-2.7 6.5-4.3 2.4-7.4 2.4m39.3 79.5 23.7-35.1-22.1-32.9H798l10.5 16.7c.7 1 1.3 2.1 1.9 3.3q.9 1.8 1.2 3c.3-.7.8-1.7 1.4-3 .6-1.2 1.2-2.4 1.7-3.3l10.6-16.7h17.4l-22.1 32.9 23.6 35.1h-17.6l-11.8-18.7c-.7-1-1.3-2.1-1.9-3.4s-1.1-2.3-1.4-3c-.3.7-.8 1.8-1.4 3-.6 1.3-1.2 2.4-1.9 3.4l-12 18.7zm87.1-33.7v-14.3h39.6v14.3zm66.4 55.9v-90.3h15.1v12.2h.2c1.2-4.3 3.4-7.6 6.6-10s7.1-3.5 11.8-3.5c6.7 0 12.1 2.4 16.1 7.1s6.1 11 6.1 18.9v18.4c0 8-2 14.3-6.1 19s-9.5 7.1-16.1 7.1c-4.6 0-8.5-1.2-11.8-3.5-3.2-2.4-5.4-5.7-6.7-10h-.2l.4 15.5v19h-15.4zm28.1-34.4c4 0 7-1.2 9.2-3.5q3.3-3.45 3.3-9.9v-17.1q0-6.45-3.3-9.9c-2.2-2.3-5.3-3.5-9.2-3.5-4 0-7 1.2-9.3 3.6-2.2 2.4-3.3 5.8-3.3 10.1v16.3c0 4.4 1.1 7.8 3.3 10.1 2.2 2.6 5.3 3.8 9.3 3.8m57.1 34.4 9.6-26-26.2-64.3h16.8l13.4 34.8q1.05 2.85 2.1 6.9t1.5 6.6c.4-1.7 1-3.9 1.7-6.6s1.4-5 2-6.9l12.7-34.8h16.1l-33.5 90.3zm71-55.9v-14.3h39.6v14.3zm82.3 33.7v-46.5h-18.7v-14h18.7v-10.3c0-5.9 2-10.7 5.9-14.2 4-3.5 9.2-5.3 15.7-5.3h19.9v13.6h-19.5c-2 0-3.6.6-4.8 1.7s-1.8 2.6-1.8 4.5v10h26.1v14h-26.1v46.5zm86 1.2q-13.05 0-20.4-7.2c-7.35-7.2-7.4-11.4-7.4-19.7v-42.3h15.5v42.2c0 4.4 1.1 7.7 3.2 10.1 2.1 2.3 5.2 3.5 9.2 3.5 3.9 0 6.9-1.2 9.1-3.5 2.2-2.4 3.3-5.7 3.3-10.1v-42.2h15.5v42.3c0 8.3-2.5 14.9-7.5 19.7-5.3 4.8-12.1 7.2-20.5 7.2m46.6-1.2v-68h15.1v13h.2c.7-4.5 2.7-7.9 5.8-10.5 3.1-2.5 7.2-3.8 12.2-3.8 6.7 0 12 2.2 16 6.7s6 10.4 6 17.9v44.7h-15.5v-43c0-4.1-1.1-7.3-3.3-9.5s-5.1-3.3-8.8-3.3c-3.9 0-6.9 1.2-9.1 3.5q-3.3 3.45-3.3 9.9v42.5h-15.3zm102.2 1.2c-5.8 0-10.8-1.1-15.2-3.3-4.3-2.2-7.7-5.3-10.1-9.3s-3.6-8.7-3.6-14.2v-17.1c0-5.4 1.2-10.2 3.6-14.2s5.8-7.1 10.1-9.3 9.4-3.3 15.2-3.3c8.6 0 15.4 2.2 20.5 6.6s7.8 10.4 8 18h-15.1c-.2-3.5-1.6-6.3-4-8.2s-5.6-2.9-9.5-2.9c-4.1 0-7.4 1.1-9.8 3.4s-3.6 5.5-3.6 9.7v17.2c0 4.2 1.2 7.5 3.6 9.8s5.6 3.5 9.8 3.5c4 0 7.1-1 9.5-2.9s3.7-4.7 4-8.2h15.1c-.2 7.6-2.9 13.6-8 18-5.1 4.5-12 6.7-20.5 6.7m71.2-.1c-5.2 0-9.8-.8-13.7-2.4-4-1.6-7-3.9-9.2-6.9q-3.3-4.5-3.3-10.5h15.6c0 2.4 1 4.2 2.9 5.5s4.6 1.9 7.9 1.9h5.3q5.85 0 8.7-2.1c1.9-1.4 2.8-3.3 2.8-5.8q0-7.05-10.5-8.7l-9.5-1.2c-14.3-2.1-21.4-8.9-21.4-20.4 0-6.4 2.2-11.3 6.5-14.7 4.3-3.3 10.6-5 18.9-5h4.7c7.7 0 13.8 1.7 18.5 5.1s7 7.9 7 13.5h-15.6c0-2-.9-3.5-2.6-4.6s-4.2-1.7-7.4-1.7h-4.7c-6.8 0-10.1 2.4-10.1 7.3 0 4.2 3 6.8 9 7.7l9.6 1.5c7.7 1.1 13.4 3.3 17.1 6.7 3.8 3.4 5.6 8.1 5.6 14.1 0 6.5-2.2 11.6-6.7 15.2s-11.1 5.4-19.9 5.4h-5.5z" style="fill:#fff"/></svg>